<svg xmlns="http://www.w3.org/2000/svg" viewBox="0 0 64 64">
  <!-- Shield background -->
  <path d="M32 4 L56 14 L56 34 C56 48 44 58 32 62 C20 58 8 48 8 34 L8 14 Z"
        fill="#667eea"/>
  <!-- Shield highlight -->
  <path d="M32 8 L52 17 L52 34 C52 46 41 55 32 59 C23 55 12 46 12 34 L12 17 Z"
        fill="#764ba2"/>
  <!-- Lock body -->
  <rect x="23" y="33" width="18" height="14" rx="2.5" fill="white"/>
  <!-- Lock shackle -->
  <path d="M26 33 L26 27 C26 22 38 22 38 27 L38 33"
        fill="none" stroke="white" stroke-width="3.5" stroke-linecap="round"/>
  <!-- Lock keyhole -->
  <circle cx="32" cy="39" r="2.5" fill="#667eea"/>
  <rect x="30.5" y="39" width="3" height="4" rx="1" fill="#667eea"/>
</svg>
